<?xml version="1.0" encoding="UTF-8"?>
<svg version="1.1" xmlns="http://www.w3.org/2000/svg" width="454" height="366">
<path d="M0 0 C149.82 0 299.64 0 454 0 C454 120.78 454 241.56 454 366 C304.18 366 154.36 366 0 366 C0 245.22 0 124.44 0 0 Z " fill="#12141A" transform="translate(0,0)"/>
<path d="M0 0 C47.19 0 94.38 0 143 0 C143.08060607 41.98680543 143.08060607 41.98680543 143.09765625 59.6484375 C143.10950052 71.81935318 143.1233869 83.99024107 143.15087891 96.16113281 C143.17089595 105.02708267 143.18373606 113.89300987 143.18817699 122.7589817 C143.19077037 127.4476871 143.19680874 132.1363277 143.21146011 136.82501221 C143.22517582 141.25070917 143.22919481 145.67631551 143.22621536 150.10203171 C143.22675934 151.71432363 143.23065258 153.32661902 143.23841095 154.93889236 C143.3563807 180.75083849 138.42185511 205.53662658 120 225 C100.52612201 243.48472863 75.65116438 250.59517898 49.29101562 250.44604492 C47.00039471 250.43750147 44.71225455 250.4665077 42.421875 250.49804688 C32.030865 250.54629276 22.96558136 248.9687853 13 246 C11.36393799 245.53339966 11.36393799 245.53339966 9.69482422 245.05737305 C-2.83407952 241.38878046 -14.34528944 234.73677543 -24 226 C-25.30904297 224.83017578 -25.30904297 224.83017578 -26.64453125 223.63671875 C-31.43433166 219.14122252 -31.43433166 219.14122252 -33 217 C-32.60220248 213.89686547 -31.53865958 212.12454076 -29.48046875 209.8203125 C-28.958479 209.22798828 -28.43648926 208.63566406 -27.89868164 208.02539062 C-27.05164673 207.08469727 -27.05164673 207.08469727 -26.1875 206.125 C-25.00215226 204.78425356 -23.81726731 203.44309785 -22.6328125 202.1015625 C-22.02856445 201.42125977 -21.42431641 200.74095703 -20.80175781 200.04003906 C-18.01988733 196.8902681 -15.29064596 193.69628935 -12.5625 190.5 C-11.62640882 189.40615864 -10.69021443 188.31240561 -9.75390625 187.21875 C-9.31062988 186.70054687 -8.86735352 186.18234375 -8.41064453 185.6484375 C-5.94230958 182.76401424 -3.47105782 179.88209061 -1 177 C2.22229689 178.51435545 3.92441287 179.87318128 6.125 182.6875 C13.45461707 191.29590132 23.3822046 196.46073487 34 200 C37.53707572 200.2570436 41.07956879 200.2314132 44.625 200.25 C45.58535156 200.270625 46.54570312 200.29125 47.53515625 200.3125 C56.38491794 200.36053127 63.2383643 198.94204349 70 193 C70.66 193 71.32 193 72 193 C72.66789753 191.66728281 73.33423622 190.33378439 74 189 C74.39058594 188.22785156 74.78117187 187.45570313 75.18359375 186.66015625 C82.84883639 170.78044798 82.40356522 155.64857075 82.29296875 138.35546875 C82.28736551 135.77330269 82.28309886 133.19113342 82.28010559 130.60896301 C82.26987455 124.53901202 82.24630157 118.46925125 82.21605712 112.39937145 C82.17902386 104.79948263 82.16276697 97.19956611 82.14648438 89.59960938 C82.1173994 76.06627812 82.05728159 62.53330641 82 49 C54.94 48.67 27.88 48.34 0 48 C0 32.16 0 16.32 0 0 Z " fill="#1A6FF1" transform="translate(172,71)"/>
<path d="M0 0 C0.33 0 0.66 0 1 0 C1 15.84 1 31.68 1 48 C6.90777344 47.98839844 12.81554687 47.97679687 18.90234375 47.96484375 C22.63476672 47.959737 26.3671854 47.95492323 30.09960938 47.95117188 C36.02987558 47.9451834 41.96012642 47.93808297 47.89038086 47.92456055 C52.66898836 47.91373178 57.44757938 47.90772319 62.2261982 47.90512276 C64.05353619 47.90326849 65.88087324 47.89964784 67.70820427 47.89426994 C70.25853329 47.88705964 72.80879337 47.88600905 75.35913086 47.88647461 C76.12229614 47.88287933 76.88546143 47.87928406 77.67175293 47.87557983 C82.88594784 47.88594784 82.88594784 47.88594784 84 49 C84.09575309 50.50551174 84.12188187 52.0155103 84.12025452 53.52406311 C84.12231651 54.99018791 84.12231651 54.99018791 84.12442017 56.4859314 C84.11902725 58.10756699 84.11902725 58.10756699 84.11352539 59.76196289 C84.11367142 60.8935231 84.11381744 62.02508331 84.1139679 63.19093323 C84.11326819 66.95152671 84.10547311 70.71207137 84.09765625 74.47265625 C84.09579227 77.07197543 84.09436828 79.67129497 84.09336853 82.27061462 C84.08993341 88.42588577 84.08204256 94.5811366 84.07201904 100.73640007 C84.06085694 107.74233346 84.05534721 114.74826767 84.05032361 121.75420773 C84.03985992 136.16948133 84.02226108 150.58474004 84 165 C83.67 165 83.34 165 83 165 C82.67 127.05 82.34 89.1 82 50 C54.94 50 27.88 50 0 50 C0 33.5 0 17 0 0 Z " fill="#12346D" transform="translate(171,71)"/>
<path d="M0 0 C0.33 0 0.66 0 1 0 C1.07014733 22.77482044 1.12301624 45.54962301 1.15543652 68.32452965 C1.17089135 78.89982087 1.19195442 89.47504489 1.22631836 100.05029297 C1.25626307 109.26996743 1.27558506 118.4895932 1.28226548 127.70931494 C1.28616914 132.58901029 1.29531446 137.46856638 1.31719017 142.34821701 C1.33763546 146.94628598 1.3438176 151.54415903 1.33932304 156.14226913 C1.34014466 157.82481452 1.34606222 159.50736683 1.35761642 161.18987274 C1.41411307 169.84539038 1.32736275 177.84218814 -2 186 C-2.33 186 -2.66 186 -3 186 C-3.18180659 180.72760875 -2.87995893 175.90502693 -2.01211548 170.69857788 C-0.82479915 162.60658624 -0.69214658 154.60439004 -0.68115234 146.44775391 C-0.67182894 144.83979299 -0.66165679 143.2318368 -0.65071106 141.62388611 C-0.62366848 137.30461492 -0.60833907 132.98537586 -0.59528303 128.6660428 C-0.57953843 124.13502139 -0.55278502 119.60406452 -0.5272522 115.0730896 C-0.48066334 106.51354105 -0.44382364 97.95398009 -0.41057932 89.39437044 C-0.37221645 79.64086592 -0.32284391 69.88742656 -0.27259517 60.13397717 C-0.16957158 40.08936637 -0.08021601 20.04471422 0 0 Z " fill="#091325" transform="translate(316,71)"/>
<path d="M0 0 C0.33 0 0.66 0 1 0 C2.38458877 6.79707213 1.35001386 11.52086573 -1 18 C-1.33 18 -1.66 18 -2 18 C-2.20190089 11.64012196 -1.6277833 6.14778871 0 0 Z " fill="#0B1E40" transform="translate(315,239)"/>
<path d="M0 0 C0.66 0 1.32 0 2 0 C1.35300491 2.90821025 0.45685582 5.49201533 -0.8125 8.1875 C-1.12832031 8.88230469 -1.44414062 9.57710938 -1.76953125 10.29296875 C-3 12 -3 12 -7 13 C-3.535 6.565 -3.535 6.565 0 0 Z " fill="#0B1D40" transform="translate(305,275)"/>
<path d="M0 0 C0.33 0.66 0.66 1.32 1 2 C0.54109375 2.51949219 0.0821875 3.03898437 -0.390625 3.57421875 C-3.68382608 7.31712166 -6.92952189 11.06978801 -10 15 C-10.66 14.67 -11.32 14.34 -12 14 C-8.04 9.38 -4.08 4.76 0 0 Z " fill="#225EB8" transform="translate(158,263)"/>
<path d="M0 0 C0.33 0.66 0.66 1.32 1 2 C-1.78999451 5.48749314 -4.25235831 8.50157221 -8 11 C-8.66 10.67 -9.32 10.34 -10 10 C-8.71034824 8.62437146 -7.37310707 7.29233607 -6 6 C-5.34 6 -4.68 6 -4 6 C-3.71125 5.38125 -3.4225 4.7625 -3.125 4.125 C-2 2 -2 2 0 0 Z " fill="#0A1D3F" transform="translate(296,290)"/>
<path d="M0 0 C0 0.99 0 1.98 0 3 C-4.1077065 4.58706842 -5.59232396 5.10191901 -10 4 C-6.7 2.68 -3.4 1.36 0 0 Z " fill="#0B1D44" transform="translate(271,310)"/>
</svg>
